# xmcd
#
# Track frame offsets: 
#        150
#        20212
#        38884
#        63658
#        80951
#        106714
#        119010
#        144400
#        165897
#        184930
#        207443
#        222577
#
# Disc length: 3151 seconds
#
# Revision: 0
# Processed by: cddbd v1.4PL0 Copyright (c) Steve Scherf et al.
# Submitted via: ExactAudioCopy v0.95a3
#
DISCID=b70c4d0c
DTITLE=Poop House Reilly - Number Two
DYEAR=2002
DGENRE=Country
TTITLE0=Raise Th' Barn
TTITLE1=Chief Bowl Packa'
TTITLE2=Arkansas
TTITLE3=Timmy Gots Tourettes
TTITLE4=The Fancer?
TTITLE5=Dad Got A B.J.
TTITLE6=Quick Stop/Pit Stop
TTITLE7=Funky Butt
TTITLE8=The Best BoogerI Ever Seen
TTITLE9=It's Masturbation!
TTITLE10=The I-71 Women's State Pen
TTITLE11=An Old Fashioned Luv Song
EXTD=
EXTT0=
EXTT1=
EXTT2=
EXTT3=
EXTT4=
EXTT5=
EXTT6=
EXTT7=
EXTT8=
EXTT9=
EXTT10=
EXTT11=
PLAYORDER=
